<svg width="23" height="26" viewBox="0 0 23 26" fill="none" xmlns="http://www.w3.org/2000/svg">
<path d="M11.5 10.083C10.9584 10.0832 10.4291 10.2544 9.97889 10.5751C9.52869 10.8958 9.17785 11.3514 8.97075 11.8845C8.76364 12.4175 8.70955 13.004 8.81533 13.5698C8.92111 14.1355 9.182 14.6552 9.56502 15.063C9.94804 15.4709 10.436 15.7486 10.9672 15.8611C11.4983 15.9735 12.0489 15.9157 12.5492 15.6949C13.0495 15.4741 13.4772 15.1002 13.778 14.6205C14.0789 14.1408 14.2395 13.5769 14.2395 13C14.2389 12.2263 13.9501 11.4846 13.4364 10.9376C12.9228 10.3906 12.2263 10.0833 11.5 10.083ZM17.9025 7.84078C17.7631 7.46445 17.5526 7.12264 17.284 6.83656C17.0155 6.55048 16.6946 6.32623 16.3413 6.17773C15.2632 5.72437 12.6962 5.82609 11.5 5.82609C10.3038 5.82609 7.7394 5.72055 6.65819 6.17773C6.3049 6.32623 5.98401 6.55048 5.71545 6.83656C5.44689 7.12264 5.23637 7.46445 5.09696 7.84078C4.67188 8.98922 4.76685 11.7263 4.76685 12.9995C4.76685 14.2726 4.67188 17.0064 5.09902 18.1587C5.23843 18.535 5.44894 18.8768 5.7175 19.1629C5.98607 19.449 6.30695 19.6732 6.66025 19.8217C7.73837 20.2751 10.3053 20.1734 11.5021 20.1734C12.6988 20.1734 15.2621 20.2789 16.3433 19.8217C16.6966 19.6732 17.0175 19.449 17.2861 19.1629C17.5547 18.8768 17.7652 18.535 17.9046 18.1587C18.3333 17.0102 18.2347 14.2731 18.2347 13C18.2347 11.7269 18.3333 8.99359 17.9046 7.84133L17.9025 7.84078ZM11.5 17.4844C10.6674 17.4844 9.85345 17.2214 9.16115 16.7286C8.46885 16.2359 7.92926 15.5355 7.61063 14.7161C7.292 13.8967 7.20863 12.995 7.37107 12.1251C7.53351 11.2553 7.93445 10.4562 8.52321 9.82907C9.11196 9.20192 9.86208 8.77482 10.6787 8.60179C11.4953 8.42876 12.3418 8.51757 13.111 8.85698C13.8803 9.19639 14.5378 9.77116 15.0003 10.5086C15.4629 11.2461 15.7098 12.1131 15.7098 13C15.7105 13.5891 15.6021 14.1726 15.3907 14.7169C15.1794 15.2613 14.8694 15.756 14.4783 16.1725C14.0872 16.5891 13.6229 16.9194 13.1118 17.1445C12.6008 17.3696 12.053 17.4851 11.5 17.4844ZM15.8833 9.37422C15.689 9.37433 15.4989 9.31303 15.3373 9.19808C15.1756 9.08313 15.0496 8.91969 14.9751 8.72844C14.9007 8.53719 14.8812 8.32671 14.919 8.12363C14.9569 7.92055 15.0504 7.73399 15.1878 7.58755C15.3252 7.44111 15.5003 7.34137 15.6909 7.30093C15.8816 7.2605 16.0792 7.2812 16.2588 7.36041C16.4383 7.43961 16.5918 7.57377 16.6998 7.74592C16.8078 7.91806 16.8655 8.12046 16.8655 8.3275C16.866 8.46499 16.8411 8.60124 16.7921 8.72844C16.7431 8.85564 16.671 8.97128 16.5799 9.06873C16.4888 9.16618 16.3806 9.24352 16.2614 9.29632C16.1423 9.34912 16.0145 9.37634 15.8854 9.37641L15.8833 9.37422ZM20.5357 0.75H2.46429C1.81072 0.75 1.18392 1.02656 0.721773 1.51884C0.259629 2.01113 0 2.67881 0 3.375L0 22.625C0 23.3212 0.259629 23.9889 0.721773 24.4812C1.18392 24.9734 1.81072 25.25 2.46429 25.25H20.5357C21.1893 25.25 21.8161 24.9734 22.2782 24.4812C22.7404 23.9889 23 23.3212 23 22.625V3.375C23 2.67881 22.7404 2.01113 22.2782 1.51884C21.8161 1.02656 21.1893 0.75 20.5357 0.75ZM19.6568 16.6094C19.5906 18.011 19.2902 19.253 18.3297 20.2734C17.3691 21.2939 16.2042 21.6204 14.8899 21.6871C13.5341 21.7686 9.46902 21.7686 8.11315 21.6871C6.79732 21.6166 5.63551 21.2961 4.67342 20.2734C3.71132 19.2508 3.40893 18.0083 3.34629 16.6094C3.2698 15.1645 3.2698 10.8338 3.34629 9.39062C3.41252 7.98898 3.70926 6.74703 4.67342 5.72656C5.63757 4.70609 6.80246 4.38344 8.11315 4.31672C9.46902 4.23523 13.5341 4.23523 14.8899 4.31672C16.2058 4.38727 17.3712 4.70773 18.3297 5.73039C19.2882 6.75305 19.5942 7.99555 19.6568 9.39719C19.7333 10.8366 19.7333 15.1634 19.6568 16.6094Z" fill="#F33838"/>
</svg>
