<svg width="24" height="23" viewBox="0 0 24 23" fill="none" xmlns="http://www.w3.org/2000/svg">
<path fill-rule="evenodd" clip-rule="evenodd" d="M1.6 0.600098V3.8001H0V5.4001H1.6V23.0001H3.2V5.4001H9.6V8.6001H7.2C6.98783 8.6001 6.78434 8.68438 6.63432 8.83441C6.48429 8.98444 6.4 9.18792 6.4 9.4001V19.0001C6.4 19.2123 6.48429 19.4158 6.63432 19.5658C6.78434 19.7158 6.98783 19.8001 7.2 19.8001H23.2C23.4122 19.8001 23.6157 19.7158 23.7657 19.5658C23.9157 19.4158 24 19.2123 24 19.0001V9.4001C24 9.18792 23.9157 8.98444 23.7657 8.83441C23.6157 8.68438 23.4122 8.6001 23.2 8.6001H20.8V5.4001H24V3.8001H3.2V0.600098H1.6ZM11.2 8.6001V5.4001H19.2V8.6001H11.2Z" fill="#F33838"/>
</svg>
