<svg width="198" height="25" viewBox="0 0 198 25" fill="none" xmlns="http://www.w3.org/2000/svg">
<path d="M35.443 24.999H2.53165C1.86021 24.999 1.21628 24.7356 0.741502 24.2667C0.266726 23.7978 0 23.1619 0 22.4989L0 11.9817H1.82384L2.23523 10.9984H3.15612L3.56646 11.9776H7.15506V11.2328L7.47574 11.9828H9.33861L9.65928 11.2203V11.9807H18.576V10.3723H18.7447C18.865 10.3765 18.8998 10.3869 18.8998 10.5848V11.9828H23.5127V11.6088C23.9842 11.8453 24.5401 11.9838 25.1297 11.9838L25.23 11.9828H25.2247H27.1656L27.5812 11.0036H28.5021L28.9082 11.9828H32.6487V11.0515L33.2141 11.9828H36.2057V5.83254H33.2447V6.55861L32.8302 5.83254H29.7859V6.55861L29.4051 5.83254H25.2943C24.6715 5.80145 24.0509 5.92803 23.4916 6.20026L23.5137 6.19088V5.83254H20.6783V6.19088C20.3351 5.92374 19.9016 5.79595 19.4662 5.83358H19.4726H9.11076L8.41561 7.42218L7.70148 5.83358H4.43776V6.55965L4.07806 5.83358H1.29325L0.00316456 8.75037V2.5001C0.00316456 1.83704 0.269891 1.20112 0.744666 0.732264C1.21944 0.263403 1.86338 0 2.53481 0H35.4462C36.1176 0 36.7616 0.263403 37.2363 0.732264C37.7111 1.20112 37.9778 1.83704 37.9778 2.5001V13.4172H36.0021C35.9705 13.4151 35.9325 13.4151 35.8956 13.4151C35.4378 13.4151 35.0127 13.5506 34.6582 13.7829L34.6667 13.7777V13.4172H31.7447C31.2882 13.3923 30.8366 13.5204 30.4631 13.7808L30.4694 13.7766V13.4162H25.2521V13.7766C24.825 13.5388 24.3427 13.4146 23.8523 13.4162H23.8112H23.8133H20.3713V13.7766C19.9216 13.4922 19.388 13.3656 18.8565 13.4172L18.866 13.4162H15.0148L14.1329 14.3579L13.308 13.4162H7.55485V19.5706H13.2004L14.1087 18.6143L14.9641 19.5706H18.4441V18.1299H18.9293C19.3959 18.1479 19.8612 18.071 20.2964 17.9039L20.2732 17.9122V19.5727H23.1424V17.9695H23.2806C23.4557 17.9695 23.4736 17.9757 23.4736 18.1508V19.5737H32.193L32.2996 19.5758C32.7996 19.5758 33.2658 19.4279 33.654 19.1748L33.6445 19.18V19.5737H36.4103L36.5422 19.5758C37.0601 19.5758 37.5527 19.4706 38 19.28L37.9757 19.2893V22.4999C37.9757 23.163 37.709 23.7989 37.2342 24.2677C36.7595 24.7366 36.1155 25 35.4441 25L35.443 24.999ZM22.2627 18.7081H21.1888V14.2964H23.653C24.098 14.2557 24.5461 14.3296 24.9536 14.511L24.9367 14.5048C25.2669 14.6839 25.4873 15.0256 25.4873 15.4173L25.4852 15.4871V15.484L25.4863 15.5236C25.4863 16.0298 25.1772 16.4653 24.7342 16.6549L24.7257 16.658C24.9378 16.733 25.115 16.8611 25.2468 17.0268L25.2489 17.0288C25.3979 17.2723 25.4602 17.5579 25.4262 17.8403L25.4272 17.8341V18.707H24.3555V18.1549C24.4062 17.8543 24.3452 17.5457 24.1835 17.2861L24.1867 17.2913C24.0754 17.2079 23.948 17.1476 23.8124 17.1141C23.6768 17.0806 23.5357 17.0746 23.3977 17.0965L23.404 17.0955H22.2627V18.707V18.7081ZM22.2627 15.2079V16.1986H23.5601C23.7433 16.2153 23.9277 16.1829 24.0939 16.1048L24.0876 16.108C24.1554 16.0647 24.2113 16.0053 24.25 15.9353C24.2886 15.8652 24.309 15.7867 24.3091 15.7069L24.308 15.6829C24.3132 15.6033 24.2955 15.5249 24.2569 15.4549C24.2182 15.3848 24.1602 15.327 24.0897 15.2881L24.0876 15.2871C23.9275 15.2164 23.7516 15.1877 23.577 15.2038H23.5812L22.2627 15.2079ZM12.7426 18.707H8.51582V14.2964H12.8091L14.1224 15.7423L15.48 14.2964H18.8903C20.1013 14.2964 20.6899 14.7725 20.6899 15.7496C20.6899 16.7444 20.0812 17.2278 18.8333 17.2278H17.4989V18.706H15.4241L14.1097 17.2486L12.7437 18.707H12.7426ZM16.4357 14.7694L14.7964 16.509L16.4357 18.3049V14.7694ZM9.58017 16.9101V17.7872H12.2046L13.4177 16.4934L12.2511 15.2079H9.57911V16.01H11.923V16.909L9.58017 16.9101ZM17.4989 15.209V16.3319H18.8776C19.2996 16.3319 19.5422 16.1194 19.5422 15.7486C19.5422 15.3944 19.3165 15.2079 18.8892 15.2079L17.4989 15.209ZM36.5264 18.7091H34.4652V17.7612H36.5179C36.6715 17.7821 36.8273 17.7424 36.9515 17.6507L36.9504 17.6518C36.9901 17.6155 37.0217 17.5715 37.0433 17.5225C37.0649 17.4736 37.076 17.4208 37.076 17.3674V17.3507C37.076 17.298 37.0645 17.2459 37.0421 17.198C37.0196 17.1502 36.9869 17.1077 36.9462 17.0736C36.8371 16.9957 36.7024 16.9608 36.5686 16.9757H36.5707L36.3734 16.9695C35.4093 16.9445 34.3175 16.9153 34.3175 15.61C34.3175 14.9746 34.7205 14.2964 35.8481 14.2964H37.9757V15.2361H36.0295C35.8792 15.2194 35.7274 15.2493 35.5949 15.3215L35.5992 15.3194C35.5471 15.3532 35.5052 15.4003 35.4779 15.4557C35.4506 15.511 35.4389 15.5726 35.4441 15.634V15.6329V15.6444C35.4441 15.7146 35.4665 15.783 35.5082 15.8399C35.5499 15.8967 35.6086 15.9391 35.6762 15.9611L35.6783 15.9621C35.812 16.0028 35.952 16.0198 36.0918 16.0121H36.0886L36.6677 16.0267C37.1043 15.9837 37.5404 16.112 37.8819 16.384L37.8787 16.3819C37.9103 16.4069 37.9378 16.434 37.962 16.4642L37.9631 16.4653L37.9757 18.1445C37.7983 18.3492 37.5727 18.5077 37.3186 18.606C37.0646 18.7043 36.79 18.7393 36.519 18.7081L36.5264 18.7091ZM32.3608 18.7091H30.2806V17.7612H32.3502C32.5051 17.7812 32.6618 17.7416 32.788 17.6507L32.7859 17.6518C32.8253 17.6153 32.8566 17.5713 32.878 17.5224C32.8995 17.4734 32.9104 17.4207 32.9103 17.3674V17.357C32.9103 17.3034 32.8987 17.2504 32.8763 17.2015C32.854 17.1527 32.8213 17.1091 32.7806 17.0736C32.6695 16.9956 32.5332 16.9608 32.3977 16.9757H32.3998L32.2036 16.9695C31.2426 16.9445 30.1519 16.9153 30.1519 15.61C30.1519 14.9746 30.5527 14.2964 31.6783 14.2964H33.8175V15.2361H31.8597C31.7104 15.2196 31.5596 15.2495 31.4283 15.3215L31.4325 15.3194C31.3771 15.357 31.333 15.4088 31.3049 15.4691C31.2768 15.5295 31.2657 15.5962 31.2729 15.6623C31.28 15.7283 31.3051 15.7912 31.3454 15.8444C31.3858 15.8975 31.4399 15.9389 31.5021 15.9642L31.5042 15.9653C31.6397 16.0063 31.7815 16.0232 31.923 16.0153H31.9198L32.4947 16.0298C32.9336 15.9881 33.3717 16.1166 33.7162 16.3882L33.7131 16.3851C33.829 16.5113 33.9172 16.6598 33.972 16.8214C34.0268 16.9829 34.0471 17.1539 34.0316 17.3236V17.3184C34.0348 18.2383 33.4705 18.707 32.3576 18.707L32.3608 18.7091ZM29.6414 18.7091H26.076V14.2954H29.6382V15.2069H27.1414V16.009H29.5802V16.908H27.1414V17.7851L29.6414 17.7893V18.706V18.7091ZM31.7194 11.1192H29.5454L29.1297 10.1358H26.9124L26.5095 11.1192H25.2605C24.6997 11.1484 24.1473 10.9739 23.7078 10.6286L23.7131 10.6317C23.5043 10.4041 23.3458 10.136 23.2477 9.84457C23.1496 9.55311 23.1141 9.24467 23.1435 8.93892L23.1424 8.94725C23.1152 8.63586 23.1525 8.32227 23.2519 8.02554C23.3512 7.72881 23.5107 7.45513 23.7205 7.22113L23.7184 7.22322C23.9399 7.03194 24.1989 6.88773 24.4792 6.79956C24.7596 6.71139 25.0554 6.68114 25.3481 6.7107L25.3397 6.70965H26.3734V7.65032H25.3608C25.2126 7.63147 25.062 7.64513 24.9198 7.69032C24.7776 7.73552 24.6472 7.81114 24.538 7.91179L24.539 7.91075C24.3135 8.19597 24.204 8.55413 24.2321 8.91496V8.90975C24.1985 9.28046 24.3039 9.65044 24.5285 9.94937L24.5253 9.94521C24.735 10.1144 25.0034 10.196 25.2732 10.1723H25.269H25.7479L27.2574 6.7034H28.8608L30.6677 10.8702V6.7034H32.2933L34.1688 9.77437V6.7034H35.2658V11.1119H33.7426L31.7173 7.80137V11.1119L31.7194 11.1192ZM28.0285 7.45448L27.2933 9.21288H28.7669L28.0285 7.45448ZM17.692 11.1171H16.6245V6.70653H19.0802C19.5284 6.66059 19.9809 6.73585 20.3892 6.92425L20.3734 6.918C20.5376 7.00765 20.6745 7.13909 20.7698 7.29865C20.8652 7.4582 20.9155 7.64006 20.9156 7.82533L20.9135 7.89825V7.89512V7.92741C20.9136 8.168 20.8434 8.4035 20.7113 8.60565C20.5792 8.8078 20.3908 8.968 20.1688 9.06705L20.1603 9.07017C20.3724 9.14934 20.5506 9.27643 20.6867 9.43894L20.6888 9.44102C20.8393 9.68538 20.9014 9.97294 20.865 10.2567L20.866 10.2504V11.1161H19.789L19.7848 10.5598V10.4765C19.8231 10.2045 19.7622 9.9279 19.6129 9.69624L19.616 9.70145C19.5043 9.62039 19.3774 9.562 19.2427 9.52963C19.108 9.49727 18.9682 9.49158 18.8312 9.5129L18.8376 9.51186H17.693V11.1161L17.692 11.1171ZM17.692 7.62428V8.60348H18.9873C19.1703 8.62309 19.3552 8.59056 19.52 8.50973L19.5148 8.51181C19.5823 8.47125 19.6382 8.4142 19.677 8.34615C19.7158 8.27811 19.7362 8.20135 19.7363 8.12326L19.7352 8.09409C19.7406 8.01493 19.7224 7.937 19.6828 7.86796C19.6433 7.79891 19.5841 7.74281 19.5127 7.70657L19.5105 7.70553C19.35 7.63752 19.1752 7.60892 19.0011 7.62219H19.0042L17.692 7.62428ZM6.38819 11.1171H4.21941L3.80907 10.1338H1.58544L1.17194 11.1171H0.0116034L1.92405 6.70653H3.50949L5.32489 10.8807V6.70653H7.06646L8.46308 9.69728L9.74684 6.70653H11.5243V11.115H10.4272L10.4251 7.6649L8.87764 11.1161H7.94093L6.38924 7.65969V11.1161L6.38819 11.1171ZM2.69198 7.45448L1.96519 9.21288H3.423L2.69198 7.45448ZM22.616 11.1161H21.5274V6.70653H22.6171V11.115L22.616 11.1161ZM15.8797 11.1161H12.3207V6.70653H15.8861V7.62324H13.3882V8.41806H15.826V9.32331H13.3861V10.2046H15.884V11.115L15.8797 11.1161Z" fill="#FCF6F6"/>
<path d="M72.829 20.961C72.829 21.339 72.574 21.611 72.207 21.611C71.829 21.611 71.585 21.322 71.585 20.961C71.585 20.6 71.829 20.311 72.207 20.311C72.574 20.311 72.829 20.6 72.829 20.961ZM55.562 20.311C55.167 20.311 54.94 20.6 54.94 20.961C54.94 21.322 55.168 21.611 55.562 21.611C55.923 21.611 56.167 21.339 56.167 20.961C56.161 20.6 55.923 20.311 55.562 20.311ZM62.09 20.295C61.79 20.295 61.606 20.489 61.562 20.778H62.623C62.573 20.461 62.379 20.295 62.09 20.295ZM68.079 20.311C67.701 20.311 67.474 20.6 67.474 20.961C67.474 21.322 67.702 21.611 68.079 21.611C68.457 21.611 68.701 21.339 68.701 20.961C68.701 20.6 68.456 20.311 68.079 20.311ZM73.962 21.761C73.962 21.778 73.979 21.789 73.979 21.822C73.979 21.839 73.962 21.85 73.962 21.883C73.945 21.9 73.945 21.911 73.934 21.927C73.917 21.944 73.906 21.955 73.873 21.955C73.856 21.972 73.845 21.972 73.812 21.972C73.795 21.972 73.784 21.972 73.751 21.955C73.734 21.955 73.723 21.938 73.707 21.927C73.69 21.91 73.679 21.899 73.679 21.883C73.662 21.855 73.662 21.839 73.662 21.822C73.662 21.794 73.662 21.778 73.679 21.761C73.679 21.733 73.696 21.717 73.707 21.7C73.724 21.683 73.735 21.683 73.751 21.672C73.779 21.655 73.795 21.655 73.812 21.655C73.84 21.655 73.856 21.655 73.873 21.672C73.901 21.688 73.917 21.688 73.934 21.7C73.951 21.712 73.945 21.733 73.962 21.761ZM73.84 21.839C73.868 21.839 73.868 21.822 73.884 21.822C73.901 21.805 73.901 21.794 73.901 21.778C73.901 21.762 73.901 21.75 73.884 21.734C73.868 21.734 73.856 21.717 73.823 21.717H73.734V21.911H73.778V21.833H73.795L73.856 21.911H73.9L73.84 21.839ZM78.001 2.667V22.223C78.0007 22.9303 77.7197 23.6085 77.2196 24.1086C76.7195 24.6087 76.0413 24.8897 75.334 24.89H48.667C47.9597 24.8897 47.2815 24.6087 46.7814 24.1086C46.2813 23.6085 46.0003 22.9303 46 22.223V2.667C46.0003 1.95975 46.2813 1.28154 46.7814 0.781439C47.2815 0.281337 47.9597 0.000265037 48.667 0H75.334C76.0413 0.000265037 76.7195 0.281337 77.2196 0.781439C77.7197 1.28154 78.0007 1.95975 78.001 2.667ZM49.557 10.422C49.557 14.672 53.007 18.116 57.251 18.116C58.7624 18.1117 60.2397 17.6657 61.501 16.833C57.451 13.539 57.479 7.322 61.501 4.027C60.2409 3.19163 58.7629 2.74544 57.251 2.744C53.007 2.739 49.557 6.188 49.557 10.422ZM62.001 16.467C65.918 13.411 65.901 7.456 62.001 4.384C58.101 7.456 58.084 13.417 62.001 16.467ZM54.095 20.706C54.095 20.223 53.778 19.906 53.278 19.889C53.022 19.889 52.75 19.967 52.567 20.25C52.434 20.022 52.206 19.889 51.889 19.889C51.7738 19.8872 51.6599 19.9136 51.5573 19.9659C51.4546 20.0182 51.3663 20.0948 51.3 20.189V19.945H50.845V21.984H51.3C51.3 20.934 51.161 20.306 51.8 20.306C52.367 20.306 52.256 20.873 52.256 21.984H52.695C52.695 20.967 52.556 20.306 53.195 20.306C53.762 20.306 53.65 20.862 53.65 21.984H54.106V20.706H54.095ZM56.59 19.945H56.151V20.189C56.0733 20.0921 55.9741 20.0145 55.8613 19.9625C55.7485 19.9104 55.6252 19.8852 55.501 19.889C54.929 19.889 54.49 20.345 54.49 20.961C54.49 21.583 54.929 22.033 55.501 22.033C55.79 22.033 56.001 21.927 56.151 21.733V21.989H56.59V19.945ZM58.84 21.367C58.84 20.534 57.568 20.911 57.568 20.522C57.568 20.205 58.229 20.256 58.596 20.461L58.779 20.1C58.257 19.761 57.101 19.767 57.101 20.556C57.101 21.35 58.373 21.017 58.373 21.389C58.373 21.739 57.623 21.711 57.223 21.433L57.029 21.783C57.651 22.205 58.84 22.116 58.84 21.366V21.367ZM60.807 21.883L60.685 21.505C60.474 21.621 60.007 21.749 60.007 21.277V20.355H60.735V19.944H60.007V19.322H59.551V19.944H59.129V20.35H59.551V21.278C59.551 22.256 60.512 22.078 60.807 21.883ZM61.545 21.139H63.073C63.073 20.239 62.662 19.883 62.106 19.883C61.517 19.883 61.095 20.322 61.095 20.955C61.095 22.094 62.351 22.283 62.973 21.744L62.762 21.411C62.329 21.767 61.673 21.733 61.545 21.139ZM64.829 19.945C64.574 19.834 64.185 19.845 63.985 20.189V19.945H63.529V21.984H63.985V20.834C63.985 20.189 64.513 20.273 64.696 20.367L64.829 19.945ZM65.418 20.961C65.418 20.327 66.063 20.122 66.568 20.494L66.779 20.133C66.134 19.628 64.962 19.905 64.962 20.966C64.962 22.066 66.206 22.288 66.779 21.799L66.568 21.438C66.057 21.799 65.418 21.583 65.418 20.96V20.961ZM69.123 19.945H68.667V20.189C68.206 19.578 67.006 19.923 67.006 20.961C67.006 22.028 68.25 22.333 68.667 21.733V21.989H69.123V19.945ZM70.995 19.945C70.862 19.878 70.384 19.784 70.151 20.189V19.945H69.712V21.984H70.151V20.834C70.151 20.223 70.651 20.262 70.862 20.367L70.995 19.945ZM73.234 19.117H72.795V20.189C72.339 19.584 71.134 19.906 71.134 20.961C71.134 22.039 72.384 22.327 72.795 21.733V21.989H73.234V19.117ZM73.657 14.945V15.201H73.701V14.945H73.806V14.901H73.55V14.945H73.657ZM74.023 21.822C74.023 21.794 74.023 21.761 74.007 21.733C73.99 21.716 73.979 21.689 73.963 21.672C73.947 21.655 73.919 21.644 73.902 21.628C73.874 21.628 73.841 21.611 73.813 21.611C73.796 21.611 73.769 21.628 73.735 21.628C73.7131 21.6403 73.6926 21.6551 73.674 21.672C73.646 21.688 73.63 21.716 73.63 21.733C73.613 21.761 73.613 21.794 73.613 21.822C73.613 21.839 73.613 21.866 73.63 21.9C73.63 21.917 73.647 21.944 73.674 21.961C73.6909 21.9799 73.7117 21.995 73.735 22.005C73.763 22.021 73.796 22.021 73.813 22.021C73.841 22.021 73.874 22.021 73.902 22.005C73.919 21.988 73.946 21.977 73.963 21.961C73.98 21.945 73.991 21.917 74.007 21.9C74.023 21.867 74.023 21.839 74.023 21.822ZM74.201 14.895H74.123L74.034 15.089L73.945 14.895H73.867V15.195H73.911V14.967L74 15.161H74.061L74.139 14.967V15.195H74.2L74.201 14.895ZM74.445 10.422C74.445 6.188 70.995 2.739 66.751 2.739C65.2395 2.74279 63.7621 3.18878 62.501 4.022C66.507 7.317 66.568 13.55 62.501 16.828C63.7618 17.6619 65.2394 18.108 66.751 18.111C70.995 18.117 74.445 14.672 74.445 10.422Z" fill="#FCF6F6"/>
<path d="M96.352 12.567C96.352 13.245 95.813 13.761 95.13 13.761C94.619 13.761 94.241 13.472 94.241 12.928C94.241 12.25 94.769 11.706 95.447 11.706C95.964 11.706 96.352 12.023 96.352 12.567ZM90.474 9.873H90.213C90.13 9.873 90.046 9.929 90.035 10.023L89.796 11.507L90.252 11.49C90.863 11.49 91.335 11.407 91.446 10.701C91.574 9.956 91.102 9.873 90.474 9.873ZM106.252 9.873H106.002C105.902 9.873 105.835 9.929 105.824 10.023L105.591 11.507L106.035 11.49C106.757 11.49 107.257 11.323 107.257 10.49C107.251 9.901 106.725 9.873 106.252 9.873ZM118.002 2.667V22.223C118.002 22.9303 117.721 23.6085 117.221 24.1086C116.72 24.6087 116.042 24.8897 115.335 24.89H88.668C87.9607 24.8897 87.2825 24.6087 86.7824 24.1086C86.2823 23.6085 86.0012 22.9303 86.001 22.223V2.667C86.0012 1.95975 86.2823 1.28154 86.7824 0.781439C87.2825 0.281337 87.9607 0.000265037 88.668 0H115.335C116.042 0.000265037 116.72 0.281337 117.221 0.781439C117.721 1.28154 118.002 1.95975 118.002 2.667ZM93.13 10.189C93.13 9.022 92.23 8.633 91.202 8.633H88.98C88.9082 8.63355 88.8391 8.66043 88.7858 8.70854C88.7326 8.75665 88.6988 8.82265 88.691 8.894L87.78 14.566C87.763 14.677 87.847 14.788 87.958 14.788H89.014C89.164 14.788 89.303 14.627 89.32 14.471L89.57 12.993C89.626 12.593 90.303 12.732 90.57 12.732C92.159 12.732 93.131 11.788 93.131 10.188L93.13 10.189ZM97.808 10.678H96.752C96.541 10.678 96.53 10.984 96.519 11.134C96.197 10.662 95.73 10.578 95.202 10.578C93.841 10.578 92.802 11.772 92.802 13.089C92.802 14.172 93.48 14.878 94.563 14.878C95.063 14.878 95.685 14.606 96.035 14.217C96.0027 14.3294 95.9839 14.4452 95.979 14.562C95.979 14.69 96.035 14.784 96.157 14.784H97.113C97.263 14.784 97.391 14.623 97.419 14.467L97.986 10.895C98.003 10.789 97.919 10.678 97.808 10.678ZM100.058 16.117L103.597 10.972C103.625 10.944 103.625 10.916 103.625 10.878C103.625 10.784 103.542 10.684 103.447 10.684H102.38C102.33 10.686 102.282 10.6996 102.238 10.7237C102.195 10.7478 102.158 10.7819 102.13 10.823L100.658 12.99L100.047 10.907C100.024 10.8436 99.9826 10.7886 99.928 10.7491C99.8735 10.7095 99.8083 10.6872 99.741 10.685H98.702C98.607 10.685 98.524 10.785 98.524 10.879C98.524 10.946 99.607 14.035 99.702 14.329C99.552 14.54 98.563 15.918 98.563 16.085C98.563 16.185 98.646 16.263 98.741 16.263H99.808C99.8579 16.2597 99.9064 16.245 99.9497 16.2201C99.9931 16.1951 100.03 16.1605 100.058 16.119V16.117ZM108.908 10.189C108.908 9.022 108.008 8.633 106.98 8.633H104.774C104.7 8.63241 104.628 8.65847 104.572 8.70641C104.516 8.75436 104.479 8.82096 104.468 8.894L103.568 14.561C103.557 14.672 103.64 14.783 103.746 14.783H104.885C104.996 14.783 105.079 14.7 105.107 14.605L105.357 12.994C105.413 12.594 106.091 12.733 106.357 12.733C107.935 12.733 108.908 11.789 108.908 10.189ZM113.585 10.678H112.529C112.318 10.678 112.307 10.984 112.29 11.134C111.984 10.662 111.512 10.578 110.973 10.578C109.612 10.578 108.573 11.772 108.573 13.089C108.573 14.172 109.251 14.878 110.334 14.878C110.851 14.878 111.473 14.606 111.806 14.217C111.789 14.3 111.75 14.478 111.75 14.562C111.75 14.69 111.806 14.784 111.928 14.784H112.889C113.039 14.784 113.167 14.623 113.195 14.467L113.762 10.895C113.779 10.789 113.696 10.678 113.585 10.678ZM116.224 8.828C116.224 8.717 116.141 8.634 116.046 8.634H115.018C114.935 8.634 114.851 8.701 114.84 8.784L113.94 14.562L113.924 14.59C113.924 14.69 114.007 14.784 114.118 14.784H115.035C115.174 14.784 115.313 14.623 115.324 14.467L116.224 8.845V8.828ZM111.224 11.706C110.546 11.706 110.018 12.245 110.018 12.928C110.018 13.467 110.407 13.761 110.918 13.761C111.585 13.761 112.124 13.25 112.124 12.567C112.13 12.023 111.741 11.706 111.224 11.706Z" fill="#FCF6F6"/>
<path d="M152.119 11.1217C152.119 11.1217 152.541 13.1975 152.635 13.6328H150.78C150.963 13.1362 151.669 11.2054 151.669 11.2054C151.658 11.2221 151.852 10.6975 151.963 10.3739L152.119 11.1217ZM158.002 2.67857V22.3214C158.002 23.8002 156.808 25 155.335 25H128.669C127.196 25 126.002 23.8002 126.002 22.3214V2.67857C126.002 1.19978 127.196 0 128.669 0H155.335C156.808 0 158.002 1.19978 158.002 2.67857ZM134.474 16.6964L137.985 8.03571H135.624L133.441 13.9509L133.202 12.7511L132.424 8.76674C132.296 8.21429 131.902 8.05804 131.413 8.03571H127.819L127.78 8.20871C128.658 8.43192 129.441 8.75558 130.124 9.16295L132.113 16.6964H134.474ZM139.719 16.7076L141.119 8.03571H138.885L137.491 16.7076H139.719ZM147.491 13.8728C147.502 12.885 146.902 12.1317 145.619 11.5123C144.835 11.1161 144.358 10.8482 144.358 10.4408C144.369 10.0725 144.763 9.69308 145.641 9.69308C146.369 9.67634 146.902 9.84933 147.302 10.0223L147.502 10.1172L147.808 8.24219C147.369 8.0692 146.669 7.87388 145.808 7.87388C143.602 7.87388 142.052 9.05692 142.041 10.7422C142.024 11.9866 143.152 12.6786 143.996 13.0971C144.858 13.5212 145.152 13.8002 145.152 14.1741C145.141 14.7545 144.452 15.0223 143.813 15.0223C142.924 15.0223 142.446 14.8828 141.719 14.5592L141.424 14.4196L141.113 16.3672C141.635 16.6071 142.602 16.8192 143.602 16.8304C145.946 16.8359 147.474 15.6696 147.491 13.8728ZM155.335 16.7076L153.535 8.03571H151.808C151.274 8.03571 150.869 8.19196 150.641 8.75558L147.324 16.7076H149.669C149.669 16.7076 150.052 15.6362 150.135 15.4074H153.002C153.069 15.7143 153.269 16.7076 153.269 16.7076H155.335Z" fill="#FCF6F6"/>
<path d="M182.791 10.4576C182.791 11.4174 182.208 11.9699 181.18 11.9699H179.83V8.94531H181.185C182.208 8.94531 182.791 9.49219 182.791 10.4576ZM185.43 13.9509C185.43 14.4141 185.83 14.7154 186.458 14.7154C187.258 14.7154 187.858 14.2076 187.858 13.4933V13.0636L186.552 13.1473C185.813 13.1975 185.43 13.471 185.43 13.9509ZM198.002 2.67857V22.3214C198.002 23.8002 196.808 25 195.335 25H168.669C167.196 25 166.002 23.8002 166.002 22.3214V2.67857C166.002 1.19978 167.196 0 168.669 0H195.335C196.808 0 198.002 1.19978 198.002 2.67857ZM173.102 9.27455C173.569 9.31362 174.035 9.04018 174.33 8.6942C174.619 8.33705 174.808 7.85714 174.758 7.37165C174.346 7.38839 173.835 7.64509 173.541 8.00223C173.274 8.30915 173.046 8.8058 173.102 9.27455ZM176.469 13.4319C176.458 13.4208 175.38 13.0078 175.369 11.7578C175.358 10.7143 176.219 10.2121 176.258 10.1842C175.769 9.4587 175.013 9.38058 174.752 9.36384C174.074 9.32478 173.496 9.74888 173.174 9.74888C172.846 9.74888 172.358 9.38058 171.824 9.39174C171.13 9.4029 170.48 9.79911 170.13 10.4297C169.402 11.6908 169.941 13.5547 170.646 14.5815C170.991 15.0893 171.408 15.6473 171.952 15.625C172.469 15.6027 172.674 15.2902 173.296 15.2902C173.924 15.2902 174.102 15.625 174.646 15.6194C175.213 15.6083 175.563 15.1116 175.913 14.6038C176.296 14.0234 176.458 13.4654 176.469 13.4319ZM183.991 10.452C183.991 8.96763 182.963 7.95201 181.496 7.95201H178.652V15.5636H179.83V12.9632H181.458C182.946 12.9632 183.991 11.9364 183.991 10.452ZM188.991 11.7746C188.991 10.6752 188.113 9.96652 186.769 9.96652C185.519 9.96652 184.596 10.6864 184.563 11.6685H185.624C185.713 11.1998 186.146 10.8929 186.735 10.8929C187.458 10.8929 187.858 11.2277 187.858 11.8527V12.2712L186.391 12.3605C185.024 12.4442 184.285 13.0078 184.285 13.9844C184.285 14.9721 185.046 15.625 186.141 15.625C186.88 15.625 187.563 15.2511 187.874 14.654H187.896V15.5692H188.985V11.7746H188.991ZM194.669 10.0391H193.474L192.091 14.5368H192.069L190.685 10.0391H189.446L191.441 15.5804L191.335 15.9152C191.158 16.4844 190.863 16.7076 190.341 16.7076C190.246 16.7076 190.069 16.6964 189.996 16.6908V17.606C190.063 17.6283 190.358 17.6339 190.446 17.6339C191.596 17.6339 192.135 17.1931 192.608 15.8594L194.669 10.0391Z" fill="#FCF6F6"/>
</svg>
