<svg width="18" height="18" viewBox="0 0 18 18" fill="none" xmlns="http://www.w3.org/2000/svg">
<path d="M16.95 18C17.1167 18 17.2917 17.996 17.475 17.988C17.6583 17.9793 17.8333 17.9667 18 17.95V12.1L13 11.1L10.1 14C8.83333 13.2333 7.67067 12.325 6.612 11.275C5.554 10.225 4.675 9.1 3.975 7.9L6.825 5.025L5.9 0H0.0499992C0.0166664 0.166667 0 0.341667 0 0.525V1.05C0 3.2 0.479334 5.29567 1.438 7.337C2.396 9.379 3.66267 11.1917 5.238 12.775C6.81267 14.3583 8.62067 15.625 10.662 16.575C12.704 17.525 14.8 18 16.95 18Z" fill="#F33838"/>
</svg>
