<svg width="25" height="25" viewBox="0 0 25 25" fill="none" xmlns="http://www.w3.org/2000/svg">
<path d="M23.6406 0.390625H1.35938C0.823535 0.390625 0.390625 0.823535 0.390625 1.35938V23.6406C0.390625 24.1765 0.823535 24.6094 1.35938 24.6094H23.6406C24.1765 24.6094 24.6094 24.1765 24.6094 23.6406V1.35938C24.6094 0.823535 24.1765 0.390625 23.6406 0.390625ZM19.0179 9.16084C19.027 9.30313 19.027 9.45146 19.027 9.59678C19.027 14.0409 15.6424 19.1602 9.45752 19.1602C7.55029 19.1602 5.78232 18.6062 4.29287 17.6525C4.56533 17.6828 4.82568 17.6949 5.1042 17.6949C6.67842 17.6949 8.12549 17.1621 9.27891 16.26C7.80156 16.2297 6.56035 15.2609 6.13652 13.9289C6.6542 14.0046 7.12041 14.0046 7.65322 13.8684C6.89253 13.7138 6.2088 13.3007 5.71819 12.6991C5.22759 12.0976 4.96036 11.3448 4.96191 10.5686V10.5262C5.40693 10.7774 5.93066 10.9318 6.47861 10.953C6.01798 10.646 5.64021 10.2301 5.37881 9.74218C5.11741 9.25423 4.98045 8.70932 4.98008 8.15576C4.98008 7.5291 5.14356 6.95693 5.43721 6.46045C6.28154 7.49985 7.33514 8.34994 8.52953 8.95548C9.72392 9.56102 11.0324 9.90845 12.3698 9.9752C11.8945 7.68955 13.602 5.83984 15.6545 5.83984C16.6232 5.83984 17.4951 6.24551 18.1097 6.89941C18.8695 6.75713 19.5961 6.47256 20.2439 6.09111C19.9927 6.86914 19.4659 7.52607 18.7666 7.94082C19.4447 7.86816 20.0986 7.68047 20.7041 7.41709C20.247 8.08916 19.6748 8.68555 19.0179 9.16084Z" fill="#F33838"/>
</svg>
